<?xml version="1.0" encoding="utf-8"?>
<!-- Generator: Adobe Illustrator 25.2.0, SVG Export Plug-In . SVG Version: 6.00 Build 0)  -->
<svg version="1.1" id="Layer_1" xmlns="http://www.w3.org/2000/svg" xmlns:xlink="http://www.w3.org/1999/xlink" x="0px" y="0px"
	 viewBox="0 0 1511.6 515.8" style="enable-background:new 0 0 1511.6 515.8;" xml:space="preserve">
<style type="text/css">
	.st0{fill:url(#SVGID_1_);}
	.st1{fill:#FFFFFF;stroke:#FFFFFF;stroke-width:0.133;stroke-miterlimit:10;}
	.st2{fill:#575757;}
	.st3{fill:#0030B7;}
</style>
<linearGradient id="SVGID_1_" gradientUnits="userSpaceOnUse" x1="543.4589" y1="-124.5994" x2="83.3323" y2="384.8264">
	<stop  offset="0.526" style="stop-color:#0000FC"/>
	<stop  offset="0.7118" style="stop-color:#1753FD"/>
	<stop  offset="0.9095" style="stop-color:#2FA5FE"/>
	<stop  offset="1" style="stop-color:#38C6FE"/>
</linearGradient>
<path class="st0" d="M383.8,172.6v167.4c0,14.1-7.5,27.1-19.7,34.1l-145,83.7c-12.2,7-27.2,7-39.5,0L36.2,375.2l-1.6-0.9
	c-5.1-2.9-9.4-6.9-12.6-11.6c-4.6-6.5-7.1-14.4-7.1-22.6V172.6c0-14.1,7.5-27.1,19.7-34.1l145-83.7c12.2-7,27.2-7,39.5,0l134.3,77.6
	l10.7,6.1c2.1,1.2,4,2.5,5.8,4.1C378.6,150,383.8,161,383.8,172.6z"/>
<path class="st1" d="M369.9,142.6c-1.8-1.5-3.7-2.9-5.8-4.1l-10.7-6.1l-33.9,33.9L305.8,180l-3.8,3.8l-15.1,15.1l-3.8,3.8L175.7,310
	h-23.8l107.4-107.4l18.9-18.8h-50.5l36.4-36.4H93v55.3h89l-160,160c3.2,4.6,7.5,8.7,12.6,11.6l1.6,0.9l172.5-172.5h23.8L125.2,310
	l-13.3,13.3l-5.5,5.5h50.5l-17.5,17.5l-18.9,18.9h185.4V310H202.4L369.9,142.6z M200.9,183.8h-89v-17.5h106.6L200.9,183.8z
	 M286.9,328.9v17.5H166l17.5-17.5H286.9z"/>
<g>
	<path class="st2" d="M442.2,167.1h134.9v48.6l-94,108.2v1.6h92.4V364H435.3v-46.7l96.1-109.5v-2.1h-89.3V167.1z"/>
	<path class="st2" d="M660.6,213.3c40.2,0,69.3,31.8,69.3,75.3c0,43.6-29.1,75.3-69.3,75.3c-39.9,0-69-31.8-69-75.3
		C591.5,245.1,620.7,213.3,660.6,213.3z M629.3,288.7c0,17.3,8.4,40.4,31.2,40.4c23.1,0,31.2-23.1,31.2-40.4
		c0-17.3-8.1-40.4-31.2-40.4C637.7,248.2,629.3,271.6,629.3,288.7z"/>
	<path class="st2" d="M741.7,364v-34.6l67.5-75.3H743v-34.9h110.2V254l-68,75.3h68V364H741.7z"/>
	<path class="st2" d="M870.3,175v-1.8c0-11.8,9.7-21.5,21.5-21.5c11.8,0,21.3,9.7,21.3,21.5v1.8c0,11.8-9.5,21.3-21.3,21.3
		C880,196.3,870.3,186.8,870.3,175z M910.7,219.1L911,364h-38.1l-0.3-144.6L910.7,219.1z"/>
	<path class="st3" d="M929.7,206v-38.8h148.8V206h-53.6v158h-41.7V206H929.7z"/>
	<path class="st3" d="M1091.6,289.2c0-43.3,28.9-74.8,68.8-74.8c37.8,0,59.3,31.8,59.3,67.2c0,9.5-1.3,19.2-1.3,19.2h-87.9
		c2.6,14.4,10.8,28.6,29.9,28.6c20.7,0,33.6-17.1,34.9-17.9l19.9,27.3c-8.9,10.5-24.4,25.2-54.9,25.2
		C1120.5,364,1091.6,332.5,1091.6,289.2z M1130.7,277.1h51.7c1-8.4-3.4-17.3-3.4-17.3c-2.4-3.9-8.1-11-18.6-11
		C1142.6,248.8,1133.6,262.7,1130.7,277.1z"/>
	<path class="st3" d="M1298.5,214.9c23.1,0,38.3,13.1,46.5,24.9l-26.5,22.3c-0.5-1-6.3-12.9-19.9-12.9c-22.6,0-30.7,23.1-30.7,40.2
		c0,17.1,8.1,40.2,30.7,40.2c13.6,0,19.4-11.6,19.9-13.1l28.1,20.2c-7.6,12.3-23.4,27.3-48,27.3c-39.4,0-68.3-31.5-68.3-74.5
		C1230.2,246.4,1259.1,214.9,1298.5,214.9z"/>
	<path class="st3" d="M1363.6,364V148.7h37.8v96.6c7.6-14.7,20.5-27.8,39.4-27.8c41.2,0,55.6,32.6,55.6,70.1c0,0.3,0.3,7.1,0.3,76.4
		h-38.3c0-69.6,0-69.8,0-70.3c0-17.1-3.4-41.5-26.3-41.5c-17.8,0-30.7,15.8-30.7,43.8v68H1363.6z"/>
</g>
</svg>
